HIERARCHY
ROOT Hips
{
  OFFSET 279.157 85.6768 304.565
  CHANNELS 6 Xposition Yposition Zposition Zrotation Xrotation Yrotation
  JOINT LeftUpLeg
  {
    OFFSET 8.64259 1.95398 -2.38835
    CHANNELS 3 Zrotation Xrotation Yrotation
    JOINT LeftLeg
    {
      OFFSET 43.7702 0 0
      CHANNELS 3 Zrotation Xrotation Yrotation
      JOINT LeftFoot
      {
        OFFSET 40.6238 0 0
        CHANNELS 3 Zrotation Xrotation Yrotation
        JOINT LeftToeBase
        {
          OFFSET 12.7242 0 0
          CHANNELS 3 Zrotation Xrotation Yrotation
          End Site
          {
            OFFSET 0 0 0
          }
        }
      }
    }
  }
  JOINT RightUpLeg
  {
    OFFSET -8.2249 1.95398 -2.59336
    CHANNELS 3 Zrotation Xrotation Yrotation
    JOINT RightLeg
    {
      OFFSET 43.5653 0 0
      CHANNELS 3 Zrotation Xrotation Yrotation
      JOINT RightFoot
      {
        OFFSET 40.6238 0 0
        CHANNELS 3 Zrotation Xrotation Yrotation
        JOINT RightToeBase
        {
          OFFSET 12.7242 0 0
          CHANNELS 3 Zrotation Xrotation Yrotation
          End Site
          {
            OFFSET 0 0 0
          }
        }
      }
    }
  }
  JOINT Spine
  {
    OFFSET 0.165834 0.87714 6.61349
    CHANNELS 3 Zrotation Xrotation Yrotation
    JOINT Spine1
    {
      OFFSET 7.38963 1.71661e-005 0
      CHANNELS 3 Zrotation Xrotation Yrotation
      JOINT Spine2
      {
        OFFSET 11.9445 1.14441e-005 0
        CHANNELS 3 Zrotation Xrotation Yrotation
        JOINT Spine3
        {
          OFFSET 14.7254 4.19617e-005 0
          CHANNELS 3 Zrotation Xrotation Yrotation
          JOINT Spine4
          {
            OFFSET 10.9679 0 0
            CHANNELS 3 Zrotation Xrotation Yrotation
            JOINT RightShoulder
            {
              OFFSET 2.46616 -1.6653 3.69651
              CHANNELS 3 Zrotation Xrotation Yrotation
              JOINT RightArm
              {
                OFFSET 13.0012 0 0
                CHANNELS 3 Zrotation Xrotation Yrotation
                JOINT RightForeArm
                {
                  OFFSET 28.7848 1.52588e-005 0
                  CHANNELS 3 Zrotation Xrotation Yrotation
                  JOINT RightHand
                  {
                    OFFSET 26.5688 1.52588e-005 0
                    CHANNELS 3 Zrotation Xrotation Yrotation
                    End Site
                    {
                      OFFSET 0 0 0
                    }
                  }
                }
              }
            }
            JOINT LeftShoulder
            {
              OFFSET 2.38034 -1.29275 -3.7523
              CHANNELS 3 Zrotation Xrotation Yrotation
              JOINT LeftArm
              {
                OFFSET 16.3182 6.10351e-005 0
                CHANNELS 3 Zrotation Xrotation Yrotation
                JOINT LeftForeArm
                {
                  OFFSET 27.0901 0 0
                  CHANNELS 3 Zrotation Xrotation Yrotation
                  JOINT LeftHand
                  {
                    OFFSET 24.5451 1.52588e-005 0
                    CHANNELS 3 Zrotation Xrotation Yrotation
                    End Site
                    {
                      OFFSET 0 0 0
                    }
                  }
                }
              }
            }
            JOINT Neck
            {
              OFFSET 5.0226 -0.0266342 0
              CHANNELS 3 Zrotation Xrotation Yrotation
              JOINT Head
              {
                OFFSET 6.69364 2.86102e-005 0
                CHANNELS 3 Zrotation Xrotation Yrotation
                End Site
                {
                  OFFSET 0 0 0
                }
              }
            }
          }
        }
      }
    }
  }
}
MOTION
Frames:	10
Frame Time:	0.0416667
26.8903 100.253 19.9635 18.3976 -70.6682 14.7297 -179.109 28.3849 87.0094 -14.3593 12.5576 -0.307807 66.6231 3.0648 -3.05558 14.2966 -11.0399 7.45182 176.682 24.441 89.7457 -9.24665 -11.1101 -0.142639 66.0698 -3.76411 -6.01421 18.6339 2.86568 2.90227 0.408194 8.8807 -90.8658 9.11261 0.427071 -1.74489 -2.55947 0.349865 -1.762 -25.0875 0.931678 -1.53596 -5.07486 0.931673 -1.53597 84.0919 -28.934 -118.824 18.4594 -6.74154 -29.7464 0.325175 -26.9732 -15.9877 -24.3334 -0.566829 -9.43552 -95.3875 -46.682 69.7057 -12.0139 21.7201 -56.3693 -5.66534 23.5351 -6.71281 0.519539 -0.22567 -9.71962 13.0552 24.0543 11.642 -5.64237 20.3419 10.7419 
27.1712 100.286 19.9924 21.1579 -70.9069 17.6111 -179.346 27.619 86.7649 -13.8523 13.3202 0.0305582 66.349 2.63024 -3.10421 14.277 -11.1723 7.72873 176.485 24.029 89.5617 -9.66518 -10.1924 -0.0491156 66.3072 -3.74356 -5.60323 18.9303 2.81664 2.69245 0.396514 8.97239 -90.9607 8.92833 0.362946 -1.92642 -2.744 0.277829 -1.94053 -25.2699 0.925049 -1.72839 -5.25727 0.925057 -1.72839 84.0325 -28.4748 -119.196 19.0875 -5.98829 -27.6216 0.411647 -26.0382 -15.564 -26.2576 -0.757803 -7.88081 -95.1496 -46.0685 69.8723 -12.1521 20.5127 -54.0383 -6.55538 23.5616 -4.30573 0.66064 -0.220766 -9.27722 10.3618 22.8453 8.17309 -5.77103 20.2012 11.2808 
27.3647 100.316 20.1303 25.4979 -71.1247 22.0268 -179.477 26.8119 86.5037 -13.7382 14.404 0.234106 66.2837 2.58291 -3.12778 14.1016 -11.1628 7.43649 176.339 23.2413 89.3864 -9.98067 -9.10055 -0.055914 66.5492 -3.77564 -5.60247 19.1721 2.79314 2.44718 0.370924 8.93984 -91.0552 8.99202 0.269185 -2.10758 -2.68061 0.176188 -2.11739 -25.204 0.890035 -1.92937 -5.19141 0.890037 -1.92937 83.9862 -28.5894 -119.221 18.5639 -7.19878 -25.1103 2.65332 -24.255 -13.5601 -26.1439 -0.432464 -9.0512 -95.3288 -47.0858 69.9239 -12.053 19.1186 -51.6647 -7.56591 23.8878 -1.45535 0.134509 -0.156418 -7.50636 7.78074 21.0125 4.68696 -5.33751 19.3626 11.1404 
27.493 100.413 20.3308 28.8498 -71.9074 25.6913 -179.319 25.7504 86.626 -14.2018 15.5417 0.273597 66.4309 2.82333 -2.7977 13.9749 -11.3936 7.77312 176.312 21.7281 89.598 -9.85293 -8.42164 -0.101366 66.3882 -3.6075 -5.14852 19.6957 2.87656 1.27106 0.393518 8.93422 -91.1327 9.00263 0.279607 -2.26215 -2.67028 0.179788 -2.27227 -25.1919 0.946401 -2.07369 -5.1792 0.946395 -2.0737 84.0344 -29.2557 -118.757 18.716 -8.10623 -23.1485 3.70303 -25.0253 -12.0286 -27.2923 -0.815593 -7.24769 -95.0969 -47.474 70.3968 -12.4203 17.7642 -49.344 -7.31472 24.6234 -0.658751 -0.566883 -0.116102 -6.0752 6.51429 19.6608 2.16304 -4.9766 18.6067 11.4749 
27.6646 100.522 20.5967 34.4782 -72.2264 31.6535 -179.212 24.7641 86.7036 -14.7648 16.792 0.302366 66.6325 3.21455 -2.94961 13.9009 -11.1903 7.19224 176.191 20.0457 89.7066 -9.50935 -7.04695 -0.0657672 66.3853 -3.61373 -4.99338 19.9937 2.90792 0.664165 0.378089 8.89135 -91.2623 9.08644 0.190084 -2.51313 -2.58692 0.0793311 -2.51906 -25.1047 0.936376 -2.33999 -5.09206 0.936388 -2.34 84.5823 -29.697 -117.468 19.4801 -8.57958 -21.6521 3.92069 -25.1497 -11.3829 -25.7627 -0.703757 -7.93939 -95.0607 -47.9309 70.5929 -11.6959 17.8946 -48.2002 -6.68909 23.898 -2.04941 1.34573 -0.17283 -6.90446 5.30078 18.6237 1.16626 -4.69977 17.8553 10.6956 
27.7407 100.627 20.8806 43.3587 -72.4822 40.7749 -178.713 23.3041 86.8301 -15.65 19.5024 -0.075793 66.8263 3.82121 -2.60242 13.81 -11.3409 7.39941 175.908 17.5517 89.7447 -9.06041 -5.1459 0.0708161 66.5478 -3.71785 -4.74389 20.1418 2.95242 0.221085 0.367158 8.87213 -91.371 9.12291 0.119209 -2.72367 -2.55091 -0.00073313 -2.72628 -25.0652 0.932009 -2.56214 -5.05253 0.932013 -2.56213 83.5799 -29.9989 -119.214 20.0766 -7.75041 -17.8944 3.10647 -26.1175 -12.3332 -24.5674 -0.755997 -8.04616 -95.0049 -47.6019 70.5758 -12.3701 18.6023 -48.4083 -6.26094 23.9917 -3.13894 1.18585 -0.183577 -7.37691 4.69524 17.4026 -0.644491 -4.33861 17.0501 9.10463 
27.8844 100.677 21.1872 51.6921 -72.4625 49.2016 -178.503 21.8943 86.842 -16.6982 21.4967 -0.113106 67.1241 4.40733 -2.40663 14.1681 -11.1634 7.53979 175.371 15.4567 89.6533 -9.33798 -3.75801 0.427427 67.155 -4.158 -4.96347 19.9876 2.92943 0.574797 0.333031 8.79837 -91.4293 9.26884 0.0231869 -2.83343 -2.40518 -0.10148 -2.8317 -24.9173 0.873372 -2.69566 -4.90464 0.873375 -2.69566 83.2269 -30.7913 -119.444 20.0374 -8.36308 -16.994 3.21134 -25.079 -11.9511 -24.7232 -0.756956 -7.6979 -94.8894 -47.7431 70.7938 -12.5622 20.6527 -48.5181 -5.49558 22.4395 -6.1289 2.4637 -0.209232 -7.17284 4.922 15.4068 -3.52664 -4.72877 15.5691 9.12614 
27.9868 100.638 21.5747 58.9473 -72.5191 56.827 -178.234 20.8519 87.2164 -18.7368 22.8606 0.0257485 68.0797 5.14751 -2.35876 14.152 -11.0629 7.28208 175.179 13.3472 89.9561 -9.73123 -2.33631 0.613965 67.751 -4.44393 -4.87286 20.3426 2.80452 0.584758 0.329096 8.69791 -91.5115 9.468 -0.0241229 -2.9942 -2.20638 -0.155804 -2.99025 -24.7156 0.87651 -2.86323 -4.70291 0.876498 -2.86325 82.943 -30.959 -119.879 20.437 -8.31339 -16.5652 3.88786 -26.3288 -12.02 -24.6218 -0.804858 -7.82749 -95.1956 -48.5741 70.5876 -14.1975 22.0211 -48.5227 -4.88764 24.1174 -7.75846 2.10867 -0.209842 -7.41872 4.73085 13.8223 -5.21417 -4.89825 14.3075 8.76453 
28.1784 100.556 22.0095 65.2102 -72.3315 63.6145 -177.986 20.0607 87.7259 -20.9618 24.1859 0.231004 69.0701 5.81601 -2.42023 14.4386 -10.9283 7.41146 175.156 11.5251 90.4404 -10.2261 -1.25199 0.718861 68.2843 -4.73003 -5.13814 20.442 2.74812 0.688338 0.302921 8.57939 -91.5673 9.70321 -0.10483 -3.10031 -1.9714 -0.241105 -3.09271 -24.4784 0.831362 -2.98871 -4.46572 0.831368 -2.9887 82.225 -32.8908 -120.145 19.0941 -8.49005 -16.9106 4.12046 -24.816 -12.6429 -23.7774 -0.370787 -9.9243 -95.0637 -48.5076 70.7649 -17.7295 23.027 -46.914 -3.7017 24.4742 -9.21456 0.524322 -0.173784 -7.66252 4.91134 12.3696 -7.97743 -5.30292 13.332 9.54998 
28.3969 100.51 22.4321 70.0796 -72.6732 68.8316 -177.597 19.0073 88.1755 -22.4617 24.8793 0.257054 69.8244 6.47422 -2.02893 14.5276 -10.8206 7.29756 175.101 9.89105 90.7796 -10.7995 -0.699287 0.79205 68.731 -4.75761 -4.60648 21.0585 2.72869 -0.242217 0.298026 8.49548 -91.6555 9.86954 -0.156892 -3.27112 -1.80547 -0.300648 -3.26107 -24.3091 0.832959 -3.16728 -4.29643 0.832956 -3.16729 81.8103 -33.191 -120.73 18.4526 -9.28184 -16.74 2.99019 -25.7431 -14.3994 -25.8968 -0.793736 -7.58549 -94.7526 -49.3821 71.4882 -21.4307 22.1461 -44.2338 -2.29386 23.8097 -9.31366 -0.869661 -0.126281 -6.97139 4.86794 10.9056 -8.86578 -5.46017 12.0678 8.64184 
